<?xml version="1.0" standalone="no"?>
<!DOCTYPE svg PUBLIC "-//W3C//DTD SVG 20010904//EN"
 "http://www.w3.org/TR/2001/REC-SVG-20010904/DTD/svg10.dtd">
<svg version="1.0" xmlns="http://www.w3.org/2000/svg"
 width="512.000000pt" height="512.000000pt" viewBox="0 0 512.000000 512.000000"
 preserveAspectRatio="xMidYMid meet">

<g transform="translate(0.000000,512.000000) scale(0.100000,-0.100000)"
fill="#000000" stroke="none">
<path d="M2480 5005 c-22 -10 -305 -286 -756 -738 -676 -677 -722 -725 -734
-770 -10 -38 -10 -56 -1 -89 23 -77 71 -130 131 -148 21 -6 197 -10 443 -10
l407 0 0 -709 c0 -415 4 -720 9 -734 13 -35 68 -95 105 -115 28 -15 76 -17
476 -17 400 0 448 2 476 17 37 20 92 80 105 115 5 14 9 319 9 734 l0 709 408
0 c245 0 421 4 442 10 60 18 108 71 131 148 9 33 9 51 -1 89 -12 45 -58 94
-719 756 -388 389 -723 720 -744 734 -48 33 -134 41 -187 18z"/>
<path d="M175 1646 c-62 -29 -121 -87 -149 -146 -21 -44 -21 -56 -21 -615 l0
-570 25 -49 c14 -27 46 -68 72 -91 91 -82 -137 -75 2458 -75 2635 0 2372 -10
2472 90 92 92 89 72 86 716 -3 535 -4 550 -24 594 -28 59 -87 117 -149 146
l-50 24 -692 0 -692 0 -37 -70 c-69 -132 -203 -244 -346 -291 l-73 -24 -495 0
-495 0 -73 24 c-143 47 -277 159 -346 291 l-37 70 -692 0 -692 0 -50 -24z
m3642 -777 c62 -19 123 -113 123 -189 -1 -102 -125 -203 -229 -185 -150 25
-214 213 -112 329 20 22 66 47 106 56 31 8 58 5 112 -11z m801 -7 c117 -53
141 -224 44 -314 -86 -79 -202 -73 -280 16 -94 108 -43 275 95 311 52 14 90
11 141 -13z"/>
</g>
</svg>
